<svg xmlns="http://www.w3.org/2000/svg" width="31.5" height="31.5" viewBox="0 0 31.5 31.5">
  <path id="checkmark-circled" d="M18,2.25A15.75,15.75,0,1,0,33.75,18,15.751,15.751,0,0,0,18,2.25Zm8.079,10.484L16.3,25.284c-.077.077-.2.246-.359.246a.521.521,0,0,1-.359-.2c-.091-.091-5.548-5.337-5.548-5.337l-.1-.1a.367.367,0,0,1,0-.45A.915.915,0,0,0,10,19.35c.541-.57,1.638-1.723,1.709-1.793.091-.091.169-.211.337-.211s.288.148.373.232,3.164,3.045,3.164,3.045l7.826-10.055a.4.4,0,0,1,.246-.1.4.4,0,0,1,.246.091l2.152,1.695a.4.4,0,0,1,.091.246.366.366,0,0,1-.07.232Z" transform="translate(-2.25 -2.25)" fill="#fff"/>
</svg>
