<svg xmlns="http://www.w3.org/2000/svg" width="35" height="34.999" viewBox="0 0 35 34.999">
  <path id="cog" d="M23.333,17.5A5.835,5.835,0,0,0,17.5,11.667,5.835,5.835,0,0,0,11.667,17.5,5.835,5.835,0,0,0,17.5,23.333,5.835,5.835,0,0,0,23.333,17.5ZM35,15.016v5.058a.877.877,0,0,1-.183.524.7.7,0,0,1-.456.3l-4.216.638a14.542,14.542,0,0,1-.889,2.074q.8,1.139,2.438,3.144a.881.881,0,0,1,.228.57.759.759,0,0,1-.205.524,23.2,23.2,0,0,1-2.256,2.461q-1.64,1.618-2.142,1.618a1.112,1.112,0,0,1-.592-.205l-3.144-2.461a13.017,13.017,0,0,1-2.074.866,37.155,37.155,0,0,1-.661,4.238.767.767,0,0,1-.821.638H14.97a.861.861,0,0,1-.558-.193.672.672,0,0,1-.262-.489l-.638-4.193a14.106,14.106,0,0,1-2.05-.843L8.249,31.719a.819.819,0,0,1-.57.205.785.785,0,0,1-.57-.251,30.056,30.056,0,0,1-3.76-3.829.89.89,0,0,1-.159-.524.877.877,0,0,1,.183-.524q.342-.478,1.162-1.516t1.231-1.606a11.27,11.27,0,0,1-.934-2.256L.661,20.8a.717.717,0,0,1-.478-.285A.867.867,0,0,1,0,19.984V14.926A.877.877,0,0,1,.183,14.4a.688.688,0,0,1,.433-.3l4.238-.638a11.246,11.246,0,0,1,.889-2.1Q4.83,10.072,3.3,8.227a.857.857,0,0,1-.227-.547.961.961,0,0,1,.205-.524,22.551,22.551,0,0,1,2.245-2.45Q7.179,3.076,7.679,3.076a.969.969,0,0,1,.592.227l3.144,2.438a13.017,13.017,0,0,1,2.074-.866A37.155,37.155,0,0,1,14.15.638.767.767,0,0,1,14.97,0h5.058a.861.861,0,0,1,.558.193.676.676,0,0,1,.262.49l.638,4.193a14.106,14.106,0,0,1,2.05.843l3.236-2.438a.74.74,0,0,1,.547-.205.881.881,0,0,1,.57.227,31.215,31.215,0,0,1,3.76,3.873.737.737,0,0,1,.159.5.877.877,0,0,1-.183.524q-.342.478-1.162,1.516t-1.231,1.606a13.78,13.78,0,0,1,.934,2.233l4.17.638a.717.717,0,0,1,.478.285.868.868,0,0,1,.183.536Z" fill="#fff"/>
</svg>
