<svg xmlns="http://www.w3.org/2000/svg" width="36" height="36" viewBox="0 0 36 36">
  <defs>
    <style>
      .cls-1 {
        fill: #fff;
      }
    </style>
  </defs>
  <path id="plus-circle" class="cls-1" d="M28.5,19.5v-3A1.52,1.52,0,0,0,27,15H21V9a1.52,1.52,0,0,0-1.5-1.5h-3A1.52,1.52,0,0,0,15,9v6H9a1.52,1.52,0,0,0-1.5,1.5v3A1.52,1.52,0,0,0,9,21h6v6a1.52,1.52,0,0,0,1.5,1.5h3A1.52,1.52,0,0,0,21,27V21h6a1.52,1.52,0,0,0,1.5-1.5ZM36,18a17.609,17.609,0,0,1-2.414,9.035,17.917,17.917,0,0,1-6.551,6.551A17.609,17.609,0,0,1,18,36a17.609,17.609,0,0,1-9.035-2.414,17.917,17.917,0,0,1-6.551-6.551A17.609,17.609,0,0,1,0,18,17.609,17.609,0,0,1,2.414,8.965,17.917,17.917,0,0,1,8.965,2.414,17.609,17.609,0,0,1,18,0a17.609,17.609,0,0,1,9.035,2.414,17.917,17.917,0,0,1,6.551,6.551A17.609,17.609,0,0,1,36,18Z"/>
</svg>
